<mxfile host="Electron" modified="2023-04-18T12:12:37.031Z" agent="Mozilla/5.0 (Windows NT 10.0; Win64; x64) AppleWebKit/537.36 (KHTML, like Gecko) draw.io/21.1.2 Chrome/106.0.5249.199 Electron/21.4.3 Safari/537.36" etag="_2AFjO-RUVWfmtdAmWyn" version="21.1.2" type="device">
  <diagram name="Page-1" id="-BICjRlj_CF2rf6ecwjt">
    <mxGraphModel dx="3152" dy="1364" grid="1" gridSize="10" guides="1" tooltips="1" connect="1" arrows="1" fold="1" page="1" pageScale="1" pageWidth="850" pageHeight="1100" math="0" shadow="0">
      <root>
        <mxCell id="0" />
        <mxCell id="1" parent="0" />
        <mxCell id="bsRdrqoQIyki98Pr8Une-4" value="User" style="swimlane;fontStyle=1;align=center;verticalAlign=top;childLayout=stackLayout;horizontal=1;startSize=26;horizontalStack=0;resizeParent=1;resizeParentMax=0;resizeLast=0;collapsible=1;marginBottom=0;whiteSpace=wrap;html=1;" parent="1" vertex="1">
          <mxGeometry x="-280" y="1030" width="160" height="164" as="geometry" />
        </mxCell>
        <mxCell id="bsRdrqoQIyki98Pr8Une-5" value="+ field: type" style="text;strokeColor=none;fillColor=none;align=left;verticalAlign=top;spacingLeft=4;spacingRight=4;overflow=hidden;rotatable=0;points=[[0,0.5],[1,0.5]];portConstraint=eastwest;whiteSpace=wrap;html=1;" parent="bsRdrqoQIyki98Pr8Une-4" vertex="1">
          <mxGeometry y="26" width="160" height="26" as="geometry" />
        </mxCell>
        <mxCell id="bsRdrqoQIyki98Pr8Une-6" value="" style="line;strokeWidth=1;fillColor=none;align=left;verticalAlign=middle;spacingTop=-1;spacingLeft=3;spacingRight=3;rotatable=0;labelPosition=right;points=[];portConstraint=eastwest;strokeColor=inherit;" parent="bsRdrqoQIyki98Pr8Une-4" vertex="1">
          <mxGeometry y="52" width="160" height="8" as="geometry" />
        </mxCell>
        <mxCell id="bsRdrqoQIyki98Pr8Une-7" value="+ borrow(Borrowable)" style="text;strokeColor=none;fillColor=none;align=left;verticalAlign=top;spacingLeft=4;spacingRight=4;overflow=hidden;rotatable=0;points=[[0,0.5],[1,0.5]];portConstraint=eastwest;whiteSpace=wrap;html=1;" parent="bsRdrqoQIyki98Pr8Une-4" vertex="1">
          <mxGeometry y="60" width="160" height="26" as="geometry" />
        </mxCell>
        <mxCell id="bsRdrqoQIyki98Pr8Une-29" value="+ payUsing(PaymentWay)" style="text;strokeColor=none;fillColor=none;align=left;verticalAlign=top;spacingLeft=4;spacingRight=4;overflow=hidden;rotatable=0;points=[[0,0.5],[1,0.5]];portConstraint=eastwest;whiteSpace=wrap;html=1;" parent="bsRdrqoQIyki98Pr8Une-4" vertex="1">
          <mxGeometry y="86" width="160" height="26" as="geometry" />
        </mxCell>
        <mxCell id="bsRdrqoQIyki98Pr8Une-46" value="+ request(Request)" style="text;strokeColor=none;fillColor=none;align=left;verticalAlign=top;spacingLeft=4;spacingRight=4;overflow=hidden;rotatable=0;points=[[0,0.5],[1,0.5]];portConstraint=eastwest;whiteSpace=wrap;html=1;" parent="bsRdrqoQIyki98Pr8Une-4" vertex="1">
          <mxGeometry y="112" width="160" height="26" as="geometry" />
        </mxCell>
        <mxCell id="G7ZctmOGvD5jez6X7ehJ-20" value="+ request(Request)" style="text;strokeColor=none;fillColor=none;align=left;verticalAlign=top;spacingLeft=4;spacingRight=4;overflow=hidden;rotatable=0;points=[[0,0.5],[1,0.5]];portConstraint=eastwest;whiteSpace=wrap;html=1;" parent="bsRdrqoQIyki98Pr8Une-4" vertex="1">
          <mxGeometry y="138" width="160" height="26" as="geometry" />
        </mxCell>
        <mxCell id="bsRdrqoQIyki98Pr8Une-8" value="Admin" style="swimlane;fontStyle=1;align=center;verticalAlign=top;childLayout=stackLayout;horizontal=1;startSize=26;horizontalStack=0;resizeParent=1;resizeParentMax=0;resizeLast=0;collapsible=1;marginBottom=0;whiteSpace=wrap;html=1;" parent="1" vertex="1">
          <mxGeometry x="55" y="1030" width="280" height="190" as="geometry" />
        </mxCell>
        <mxCell id="bsRdrqoQIyki98Pr8Une-10" value="" style="line;strokeWidth=1;fillColor=none;align=left;verticalAlign=middle;spacingTop=-1;spacingLeft=3;spacingRight=3;rotatable=0;labelPosition=right;points=[];portConstraint=eastwest;strokeColor=inherit;" parent="bsRdrqoQIyki98Pr8Une-8" vertex="1">
          <mxGeometry y="26" width="280" height="8" as="geometry" />
        </mxCell>
        <mxCell id="bsRdrqoQIyki98Pr8Une-9" value="+ field: type" style="text;strokeColor=none;fillColor=none;align=left;verticalAlign=top;spacingLeft=4;spacingRight=4;overflow=hidden;rotatable=0;points=[[0,0.5],[1,0.5]];portConstraint=eastwest;whiteSpace=wrap;html=1;" parent="bsRdrqoQIyki98Pr8Une-8" vertex="1">
          <mxGeometry y="34" width="280" height="26" as="geometry" />
        </mxCell>
        <mxCell id="bsRdrqoQIyki98Pr8Une-11" value="+ acceptRequest(Request): type" style="text;strokeColor=none;fillColor=none;align=left;verticalAlign=top;spacingLeft=4;spacingRight=4;overflow=hidden;rotatable=0;points=[[0,0.5],[1,0.5]];portConstraint=eastwest;whiteSpace=wrap;html=1;" parent="bsRdrqoQIyki98Pr8Une-8" vertex="1">
          <mxGeometry y="60" width="280" height="26" as="geometry" />
        </mxCell>
        <mxCell id="G7ZctmOGvD5jez6X7ehJ-37" value="+ acceptRequest(Acceptable): type" style="text;strokeColor=none;fillColor=none;align=left;verticalAlign=top;spacingLeft=4;spacingRight=4;overflow=hidden;rotatable=0;points=[[0,0.5],[1,0.5]];portConstraint=eastwest;whiteSpace=wrap;html=1;" parent="bsRdrqoQIyki98Pr8Une-8" vertex="1">
          <mxGeometry y="86" width="280" height="26" as="geometry" />
        </mxCell>
        <mxCell id="G7ZctmOGvD5jez6X7ehJ-1" value="+ create(Creatable)" style="text;strokeColor=none;fillColor=none;align=left;verticalAlign=top;spacingLeft=4;spacingRight=4;overflow=hidden;rotatable=0;points=[[0,0.5],[1,0.5]];portConstraint=eastwest;whiteSpace=wrap;html=1;" parent="bsRdrqoQIyki98Pr8Une-8" vertex="1">
          <mxGeometry y="112" width="280" height="26" as="geometry" />
        </mxCell>
        <mxCell id="G7ZctmOGvD5jez6X7ehJ-2" value="+ edit(Editable)" style="text;strokeColor=none;fillColor=none;align=left;verticalAlign=top;spacingLeft=4;spacingRight=4;overflow=hidden;rotatable=0;points=[[0,0.5],[1,0.5]];portConstraint=eastwest;whiteSpace=wrap;html=1;" parent="bsRdrqoQIyki98Pr8Une-8" vertex="1">
          <mxGeometry y="138" width="280" height="26" as="geometry" />
        </mxCell>
        <mxCell id="G7ZctmOGvD5jez6X7ehJ-3" value="+ delete(Deletable)" style="text;strokeColor=none;fillColor=none;align=left;verticalAlign=top;spacingLeft=4;spacingRight=4;overflow=hidden;rotatable=0;points=[[0,0.5],[1,0.5]];portConstraint=eastwest;whiteSpace=wrap;html=1;" parent="bsRdrqoQIyki98Pr8Une-8" vertex="1">
          <mxGeometry y="164" width="280" height="26" as="geometry" />
        </mxCell>
        <mxCell id="bsRdrqoQIyki98Pr8Une-12" value="Human" style="swimlane;fontStyle=1;align=center;verticalAlign=top;childLayout=stackLayout;horizontal=1;startSize=26;horizontalStack=0;resizeParent=1;resizeParentMax=0;resizeLast=0;collapsible=1;marginBottom=0;whiteSpace=wrap;html=1;" parent="1" vertex="1">
          <mxGeometry x="-105" y="810" width="160" height="86" as="geometry" />
        </mxCell>
        <mxCell id="bsRdrqoQIyki98Pr8Une-13" value="+ field: type" style="text;strokeColor=none;fillColor=none;align=left;verticalAlign=top;spacingLeft=4;spacingRight=4;overflow=hidden;rotatable=0;points=[[0,0.5],[1,0.5]];portConstraint=eastwest;whiteSpace=wrap;html=1;" parent="bsRdrqoQIyki98Pr8Une-12" vertex="1">
          <mxGeometry y="26" width="160" height="26" as="geometry" />
        </mxCell>
        <mxCell id="bsRdrqoQIyki98Pr8Une-14" value="" style="line;strokeWidth=1;fillColor=none;align=left;verticalAlign=middle;spacingTop=-1;spacingLeft=3;spacingRight=3;rotatable=0;labelPosition=right;points=[];portConstraint=eastwest;strokeColor=inherit;" parent="bsRdrqoQIyki98Pr8Une-12" vertex="1">
          <mxGeometry y="52" width="160" height="8" as="geometry" />
        </mxCell>
        <mxCell id="bsRdrqoQIyki98Pr8Une-15" value="+ method(type): type" style="text;strokeColor=none;fillColor=none;align=left;verticalAlign=top;spacingLeft=4;spacingRight=4;overflow=hidden;rotatable=0;points=[[0,0.5],[1,0.5]];portConstraint=eastwest;whiteSpace=wrap;html=1;" parent="bsRdrqoQIyki98Pr8Une-12" vertex="1">
          <mxGeometry y="60" width="160" height="26" as="geometry" />
        </mxCell>
        <mxCell id="bsRdrqoQIyki98Pr8Une-18" value="Book" style="swimlane;fontStyle=1;align=center;verticalAlign=top;childLayout=stackLayout;horizontal=1;startSize=26;horizontalStack=0;resizeParent=1;resizeParentMax=0;resizeLast=0;collapsible=1;marginBottom=0;whiteSpace=wrap;html=1;" parent="1" vertex="1">
          <mxGeometry x="-220" y="1720" width="160" height="114" as="geometry" />
        </mxCell>
        <mxCell id="bsRdrqoQIyki98Pr8Une-19" value="+ id&amp;nbsp;&lt;br&gt;name&lt;br&gt;price" style="text;strokeColor=none;fillColor=none;align=left;verticalAlign=top;spacingLeft=4;spacingRight=4;overflow=hidden;rotatable=0;points=[[0,0.5],[1,0.5]];portConstraint=eastwest;whiteSpace=wrap;html=1;" parent="bsRdrqoQIyki98Pr8Une-18" vertex="1">
          <mxGeometry y="26" width="160" height="54" as="geometry" />
        </mxCell>
        <mxCell id="bsRdrqoQIyki98Pr8Une-20" value="" style="line;strokeWidth=1;fillColor=none;align=left;verticalAlign=middle;spacingTop=-1;spacingLeft=3;spacingRight=3;rotatable=0;labelPosition=right;points=[];portConstraint=eastwest;strokeColor=inherit;" parent="bsRdrqoQIyki98Pr8Une-18" vertex="1">
          <mxGeometry y="80" width="160" height="8" as="geometry" />
        </mxCell>
        <mxCell id="bsRdrqoQIyki98Pr8Une-21" value="+ method(type): type" style="text;strokeColor=none;fillColor=none;align=left;verticalAlign=top;spacingLeft=4;spacingRight=4;overflow=hidden;rotatable=0;points=[[0,0.5],[1,0.5]];portConstraint=eastwest;whiteSpace=wrap;html=1;" parent="bsRdrqoQIyki98Pr8Une-18" vertex="1">
          <mxGeometry y="88" width="160" height="26" as="geometry" />
        </mxCell>
        <mxCell id="bsRdrqoQIyki98Pr8Une-25" value="«interface»&lt;br&gt;&lt;b&gt;Borrowable&lt;/b&gt;" style="html=1;whiteSpace=wrap;" parent="1" vertex="1">
          <mxGeometry y="1530" width="110" height="50" as="geometry" />
        </mxCell>
        <mxCell id="bsRdrqoQIyki98Pr8Une-30" value="«interface»&lt;br&gt;&lt;b&gt;PaymentWay&lt;/b&gt;" style="html=1;whiteSpace=wrap;" parent="1" vertex="1">
          <mxGeometry x="-770" y="1180" width="110" height="50" as="geometry" />
        </mxCell>
        <mxCell id="bsRdrqoQIyki98Pr8Une-32" style="edgeStyle=orthogonalEdgeStyle;rounded=0;orthogonalLoop=1;jettySize=auto;html=1;exitX=0;exitY=0.5;exitDx=0;exitDy=0;" parent="1" source="bsRdrqoQIyki98Pr8Une-29" target="bsRdrqoQIyki98Pr8Une-30" edge="1">
          <mxGeometry relative="1" as="geometry" />
        </mxCell>
        <mxCell id="bsRdrqoQIyki98Pr8Une-33" value="Cash" style="swimlane;fontStyle=1;align=center;verticalAlign=top;childLayout=stackLayout;horizontal=1;startSize=26;horizontalStack=0;resizeParent=1;resizeParentMax=0;resizeLast=0;collapsible=1;marginBottom=0;whiteSpace=wrap;html=1;" parent="1" vertex="1">
          <mxGeometry x="-795" y="1294" width="160" height="86" as="geometry" />
        </mxCell>
        <mxCell id="bsRdrqoQIyki98Pr8Une-34" value="+ field: type" style="text;strokeColor=none;fillColor=none;align=left;verticalAlign=top;spacingLeft=4;spacingRight=4;overflow=hidden;rotatable=0;points=[[0,0.5],[1,0.5]];portConstraint=eastwest;whiteSpace=wrap;html=1;" parent="bsRdrqoQIyki98Pr8Une-33" vertex="1">
          <mxGeometry y="26" width="160" height="26" as="geometry" />
        </mxCell>
        <mxCell id="bsRdrqoQIyki98Pr8Une-35" value="" style="line;strokeWidth=1;fillColor=none;align=left;verticalAlign=middle;spacingTop=-1;spacingLeft=3;spacingRight=3;rotatable=0;labelPosition=right;points=[];portConstraint=eastwest;strokeColor=inherit;" parent="bsRdrqoQIyki98Pr8Une-33" vertex="1">
          <mxGeometry y="52" width="160" height="8" as="geometry" />
        </mxCell>
        <mxCell id="bsRdrqoQIyki98Pr8Une-36" value="+ method(type): type" style="text;strokeColor=none;fillColor=none;align=left;verticalAlign=top;spacingLeft=4;spacingRight=4;overflow=hidden;rotatable=0;points=[[0,0.5],[1,0.5]];portConstraint=eastwest;whiteSpace=wrap;html=1;" parent="bsRdrqoQIyki98Pr8Une-33" vertex="1">
          <mxGeometry y="60" width="160" height="26" as="geometry" />
        </mxCell>
        <mxCell id="bsRdrqoQIyki98Pr8Une-39" value="&lt;p style=&quot;margin:0px;margin-top:4px;text-align:center;&quot;&gt;&lt;i&gt;&amp;lt;&amp;lt;Interface&amp;gt;&amp;gt;&lt;/i&gt;&lt;br&gt;&lt;b&gt;Loggable&lt;/b&gt;&lt;/p&gt;&lt;p style=&quot;margin:0px;margin-top:4px;text-align:center;&quot;&gt;&lt;b&gt;&lt;br&gt;&lt;/b&gt;&lt;/p&gt;&lt;p style=&quot;margin:0px;margin-left:4px;&quot;&gt;&lt;span style=&quot;background-color: initial;&quot;&gt;+ login(Type): Type&lt;/span&gt;&lt;br&gt;&lt;/p&gt;&lt;p style=&quot;margin:0px;margin-left:4px;&quot;&gt;+ logout(Type, Type): Type&lt;/p&gt;" style="verticalAlign=top;align=left;overflow=fill;fontSize=12;fontFamily=Helvetica;html=1;whiteSpace=wrap;" parent="1" vertex="1">
          <mxGeometry x="-123" y="630" width="190" height="100" as="geometry" />
        </mxCell>
        <mxCell id="bsRdrqoQIyki98Pr8Une-49" value="Regestration Request" style="swimlane;fontStyle=1;align=center;verticalAlign=top;childLayout=stackLayout;horizontal=1;startSize=26;horizontalStack=0;resizeParent=1;resizeParentMax=0;resizeLast=0;collapsible=1;marginBottom=0;whiteSpace=wrap;html=1;" parent="1" vertex="1">
          <mxGeometry x="80" y="1720" width="160" height="86" as="geometry" />
        </mxCell>
        <mxCell id="bsRdrqoQIyki98Pr8Une-50" value="+ field: type" style="text;strokeColor=none;fillColor=none;align=left;verticalAlign=top;spacingLeft=4;spacingRight=4;overflow=hidden;rotatable=0;points=[[0,0.5],[1,0.5]];portConstraint=eastwest;whiteSpace=wrap;html=1;" parent="bsRdrqoQIyki98Pr8Une-49" vertex="1">
          <mxGeometry y="26" width="160" height="26" as="geometry" />
        </mxCell>
        <mxCell id="bsRdrqoQIyki98Pr8Une-51" value="" style="line;strokeWidth=1;fillColor=none;align=left;verticalAlign=middle;spacingTop=-1;spacingLeft=3;spacingRight=3;rotatable=0;labelPosition=right;points=[];portConstraint=eastwest;strokeColor=inherit;" parent="bsRdrqoQIyki98Pr8Une-49" vertex="1">
          <mxGeometry y="52" width="160" height="8" as="geometry" />
        </mxCell>
        <mxCell id="bsRdrqoQIyki98Pr8Une-52" value="+ method(type): type" style="text;strokeColor=none;fillColor=none;align=left;verticalAlign=top;spacingLeft=4;spacingRight=4;overflow=hidden;rotatable=0;points=[[0,0.5],[1,0.5]];portConstraint=eastwest;whiteSpace=wrap;html=1;" parent="bsRdrqoQIyki98Pr8Une-49" vertex="1">
          <mxGeometry y="60" width="160" height="26" as="geometry" />
        </mxCell>
        <mxCell id="bsRdrqoQIyki98Pr8Une-53" value="Borrowing Request" style="swimlane;fontStyle=1;align=center;verticalAlign=top;childLayout=stackLayout;horizontal=1;startSize=26;horizontalStack=0;resizeParent=1;resizeParentMax=0;resizeLast=0;collapsible=1;marginBottom=0;whiteSpace=wrap;html=1;" parent="1" vertex="1">
          <mxGeometry x="255" y="1720" width="160" height="86" as="geometry" />
        </mxCell>
        <mxCell id="bsRdrqoQIyki98Pr8Une-54" value="+ field: type" style="text;strokeColor=none;fillColor=none;align=left;verticalAlign=top;spacingLeft=4;spacingRight=4;overflow=hidden;rotatable=0;points=[[0,0.5],[1,0.5]];portConstraint=eastwest;whiteSpace=wrap;html=1;" parent="bsRdrqoQIyki98Pr8Une-53" vertex="1">
          <mxGeometry y="26" width="160" height="26" as="geometry" />
        </mxCell>
        <mxCell id="bsRdrqoQIyki98Pr8Une-55" value="" style="line;strokeWidth=1;fillColor=none;align=left;verticalAlign=middle;spacingTop=-1;spacingLeft=3;spacingRight=3;rotatable=0;labelPosition=right;points=[];portConstraint=eastwest;strokeColor=inherit;" parent="bsRdrqoQIyki98Pr8Une-53" vertex="1">
          <mxGeometry y="52" width="160" height="8" as="geometry" />
        </mxCell>
        <mxCell id="bsRdrqoQIyki98Pr8Une-56" value="+ method(type): type" style="text;strokeColor=none;fillColor=none;align=left;verticalAlign=top;spacingLeft=4;spacingRight=4;overflow=hidden;rotatable=0;points=[[0,0.5],[1,0.5]];portConstraint=eastwest;whiteSpace=wrap;html=1;" parent="bsRdrqoQIyki98Pr8Une-53" vertex="1">
          <mxGeometry y="60" width="160" height="26" as="geometry" />
        </mxCell>
        <mxCell id="bsRdrqoQIyki98Pr8Une-60" value="" style="endArrow=block;dashed=1;endFill=0;endSize=12;html=1;rounded=0;" parent="1" source="bsRdrqoQIyki98Pr8Une-33" target="bsRdrqoQIyki98Pr8Une-30" edge="1">
          <mxGeometry width="160" relative="1" as="geometry">
            <mxPoint x="-140" y="1440" as="sourcePoint" />
            <mxPoint x="20" y="1440" as="targetPoint" />
          </mxGeometry>
        </mxCell>
        <mxCell id="bsRdrqoQIyki98Pr8Une-61" value="" style="endArrow=block;dashed=1;endFill=0;endSize=12;html=1;rounded=0;" parent="1" source="bsRdrqoQIyki98Pr8Une-18" target="bsRdrqoQIyki98Pr8Une-25" edge="1">
          <mxGeometry width="160" relative="1" as="geometry">
            <mxPoint x="-185" y="1310" as="sourcePoint" />
            <mxPoint x="-185" y="1202" as="targetPoint" />
          </mxGeometry>
        </mxCell>
        <mxCell id="bsRdrqoQIyki98Pr8Une-62" value="" style="endArrow=block;dashed=1;endFill=0;endSize=12;html=1;rounded=0;" parent="1" source="bsRdrqoQIyki98Pr8Une-53" target="UxZZDdhxiffH_w0Zif0F-15" edge="1">
          <mxGeometry width="160" relative="1" as="geometry">
            <mxPoint x="138" y="1320" as="sourcePoint" />
            <mxPoint x="136" y="1270" as="targetPoint" />
          </mxGeometry>
        </mxCell>
        <mxCell id="bsRdrqoQIyki98Pr8Une-63" value="" style="endArrow=block;dashed=1;endFill=0;endSize=12;html=1;rounded=0;" parent="1" source="bsRdrqoQIyki98Pr8Une-49" target="UxZZDdhxiffH_w0Zif0F-15" edge="1">
          <mxGeometry width="160" relative="1" as="geometry">
            <mxPoint x="745" y="1304" as="sourcePoint" />
            <mxPoint x="637" y="1220" as="targetPoint" />
          </mxGeometry>
        </mxCell>
        <mxCell id="bsRdrqoQIyki98Pr8Une-65" value="" style="endArrow=block;dashed=1;endFill=0;endSize=12;html=1;rounded=0;" parent="1" source="bsRdrqoQIyki98Pr8Une-12" target="bsRdrqoQIyki98Pr8Une-39" edge="1">
          <mxGeometry width="160" relative="1" as="geometry">
            <mxPoint x="-24" y="1040" as="sourcePoint" />
            <mxPoint x="-99" y="960" as="targetPoint" />
          </mxGeometry>
        </mxCell>
        <mxCell id="G7ZctmOGvD5jez6X7ehJ-8" value="Interfaces" style="swimlane;whiteSpace=wrap;html=1;" parent="1" vertex="1">
          <mxGeometry x="540" y="1220" width="470" height="330" as="geometry" />
        </mxCell>
        <mxCell id="G7ZctmOGvD5jez6X7ehJ-12" value="Editable" style="text;html=1;align=center;verticalAlign=middle;resizable=0;points=[];autosize=1;strokeColor=#3700CC;fillColor=#6a00ff;fontColor=#ffffff;" parent="G7ZctmOGvD5jez6X7ehJ-8" vertex="1">
          <mxGeometry x="35" y="90" width="70" height="30" as="geometry" />
        </mxCell>
        <mxCell id="G7ZctmOGvD5jez6X7ehJ-11" value="Createable" style="text;html=1;align=center;verticalAlign=middle;resizable=0;points=[];autosize=1;strokeColor=#3700CC;fillColor=#6a00ff;fontColor=#ffffff;" parent="G7ZctmOGvD5jez6X7ehJ-8" vertex="1">
          <mxGeometry x="145" y="90" width="80" height="30" as="geometry" />
        </mxCell>
        <mxCell id="G7ZctmOGvD5jez6X7ehJ-13" value="Loggable" style="text;html=1;align=center;verticalAlign=middle;resizable=0;points=[];autosize=1;strokeColor=#3700CC;fillColor=#6a00ff;fontColor=#ffffff;" parent="G7ZctmOGvD5jez6X7ehJ-8" vertex="1">
          <mxGeometry x="35" y="150" width="70" height="30" as="geometry" />
        </mxCell>
        <mxCell id="G7ZctmOGvD5jez6X7ehJ-14" value="Borrowable" style="text;html=1;align=center;verticalAlign=middle;resizable=0;points=[];autosize=1;strokeColor=#3700CC;fillColor=#6a00ff;fontColor=#ffffff;" parent="G7ZctmOGvD5jez6X7ehJ-8" vertex="1">
          <mxGeometry x="145" y="40" width="80" height="30" as="geometry" />
        </mxCell>
        <mxCell id="G7ZctmOGvD5jez6X7ehJ-15" value="Deleteable" style="text;html=1;align=center;verticalAlign=middle;resizable=0;points=[];autosize=1;strokeColor=#3700CC;fillColor=#6a00ff;fontColor=#ffffff;" parent="G7ZctmOGvD5jez6X7ehJ-8" vertex="1">
          <mxGeometry x="260" y="90" width="80" height="30" as="geometry" />
        </mxCell>
        <mxCell id="G7ZctmOGvD5jez6X7ehJ-16" value="Acceptable" style="text;html=1;align=center;verticalAlign=middle;resizable=0;points=[];autosize=1;strokeColor=#3700CC;fillColor=#6a00ff;fontColor=#ffffff;" parent="G7ZctmOGvD5jez6X7ehJ-8" vertex="1">
          <mxGeometry x="30" y="210" width="80" height="30" as="geometry" />
        </mxCell>
        <mxCell id="G7ZctmOGvD5jez6X7ehJ-17" value="Request" style="text;html=1;align=center;verticalAlign=middle;resizable=0;points=[];autosize=1;strokeColor=#3700CC;fillColor=#6a00ff;fontColor=#ffffff;" parent="G7ZctmOGvD5jez6X7ehJ-8" vertex="1">
          <mxGeometry x="155" y="210" width="70" height="30" as="geometry" />
        </mxCell>
        <mxCell id="G7ZctmOGvD5jez6X7ehJ-18" value="PaymentWay" style="text;html=1;align=center;verticalAlign=middle;resizable=0;points=[];autosize=1;strokeColor=#3700CC;fillColor=#6a00ff;fontColor=#ffffff;" parent="G7ZctmOGvD5jez6X7ehJ-8" vertex="1">
          <mxGeometry x="170" y="270" width="90" height="30" as="geometry" />
        </mxCell>
        <mxCell id="G7ZctmOGvD5jez6X7ehJ-21" value="«interface»&lt;br&gt;&lt;b&gt;Creatable&lt;/b&gt;" style="html=1;whiteSpace=wrap;" parent="1" vertex="1">
          <mxGeometry x="-123" y="1530" width="110" height="50" as="geometry" />
        </mxCell>
        <mxCell id="G7ZctmOGvD5jez6X7ehJ-22" value="«interface»&lt;br&gt;&lt;b&gt;Editable&lt;/b&gt;" style="html=1;whiteSpace=wrap;" parent="1" vertex="1">
          <mxGeometry x="-390" y="1530" width="110" height="50" as="geometry" />
        </mxCell>
        <mxCell id="G7ZctmOGvD5jez6X7ehJ-23" value="«interface»&lt;br&gt;&lt;b&gt;Deletable&lt;/b&gt;" style="html=1;whiteSpace=wrap;" parent="1" vertex="1">
          <mxGeometry x="-257" y="1530" width="110" height="50" as="geometry" />
        </mxCell>
        <mxCell id="G7ZctmOGvD5jez6X7ehJ-24" value="" style="endArrow=block;dashed=1;endFill=0;endSize=12;html=1;rounded=0;" parent="1" source="bsRdrqoQIyki98Pr8Une-4" target="G7ZctmOGvD5jez6X7ehJ-21" edge="1">
          <mxGeometry width="160" relative="1" as="geometry">
            <mxPoint x="-540" y="1445" as="sourcePoint" />
            <mxPoint x="50" y="1478" as="targetPoint" />
          </mxGeometry>
        </mxCell>
        <mxCell id="G7ZctmOGvD5jez6X7ehJ-25" value="" style="endArrow=block;dashed=1;endFill=0;endSize=12;html=1;rounded=0;" parent="1" source="bsRdrqoQIyki98Pr8Une-4" target="G7ZctmOGvD5jez6X7ehJ-22" edge="1">
          <mxGeometry width="160" relative="1" as="geometry">
            <mxPoint x="-530" y="1455" as="sourcePoint" />
            <mxPoint x="-440" y="1455" as="targetPoint" />
          </mxGeometry>
        </mxCell>
        <mxCell id="G7ZctmOGvD5jez6X7ehJ-26" value="" style="endArrow=block;dashed=1;endFill=0;endSize=12;html=1;rounded=0;" parent="1" source="bsRdrqoQIyki98Pr8Une-4" target="G7ZctmOGvD5jez6X7ehJ-23" edge="1">
          <mxGeometry width="160" relative="1" as="geometry">
            <mxPoint x="-530" y="1360" as="sourcePoint" />
            <mxPoint x="-440" y="1495" as="targetPoint" />
          </mxGeometry>
        </mxCell>
        <mxCell id="G7ZctmOGvD5jez6X7ehJ-27" value="" style="endArrow=block;dashed=1;endFill=0;endSize=12;html=1;rounded=0;" parent="1" source="bsRdrqoQIyki98Pr8Une-18" target="G7ZctmOGvD5jez6X7ehJ-21" edge="1">
          <mxGeometry width="160" relative="1" as="geometry">
            <mxPoint x="-492" y="1144" as="sourcePoint" />
            <mxPoint x="-394" y="1430" as="targetPoint" />
          </mxGeometry>
        </mxCell>
        <mxCell id="G7ZctmOGvD5jez6X7ehJ-28" value="" style="endArrow=block;dashed=1;endFill=0;endSize=12;html=1;rounded=0;" parent="1" source="bsRdrqoQIyki98Pr8Une-18" target="G7ZctmOGvD5jez6X7ehJ-23" edge="1">
          <mxGeometry width="160" relative="1" as="geometry">
            <mxPoint x="50" y="1516" as="sourcePoint" />
            <mxPoint x="-330" y="1463" as="targetPoint" />
          </mxGeometry>
        </mxCell>
        <mxCell id="G7ZctmOGvD5jez6X7ehJ-29" value="" style="endArrow=block;dashed=1;endFill=0;endSize=12;html=1;rounded=0;" parent="1" source="bsRdrqoQIyki98Pr8Une-18" target="G7ZctmOGvD5jez6X7ehJ-22" edge="1">
          <mxGeometry width="160" relative="1" as="geometry">
            <mxPoint x="50" y="1518" as="sourcePoint" />
            <mxPoint x="-450" y="1461" as="targetPoint" />
          </mxGeometry>
        </mxCell>
        <mxCell id="G7ZctmOGvD5jez6X7ehJ-40" value="Extends" style="endArrow=block;endSize=16;endFill=0;html=1;rounded=0;" parent="1" source="bsRdrqoQIyki98Pr8Une-4" target="bsRdrqoQIyki98Pr8Une-12" edge="1">
          <mxGeometry width="160" relative="1" as="geometry">
            <mxPoint x="-250" y="1080" as="sourcePoint" />
            <mxPoint x="-90" y="1080" as="targetPoint" />
          </mxGeometry>
        </mxCell>
        <mxCell id="G7ZctmOGvD5jez6X7ehJ-41" value="Extends" style="endArrow=block;endSize=16;endFill=0;html=1;rounded=0;" parent="1" source="bsRdrqoQIyki98Pr8Une-8" target="bsRdrqoQIyki98Pr8Une-12" edge="1">
          <mxGeometry width="160" relative="1" as="geometry">
            <mxPoint x="-440" y="1022" as="sourcePoint" />
            <mxPoint x="-140" y="873" as="targetPoint" />
          </mxGeometry>
        </mxCell>
        <mxCell id="UxZZDdhxiffH_w0Zif0F-1" value="«interface»&lt;br&gt;&lt;b&gt;Borrower&lt;/b&gt;" style="html=1;whiteSpace=wrap;" vertex="1" parent="1">
          <mxGeometry y="1390" width="110" height="50" as="geometry" />
        </mxCell>
        <mxCell id="UxZZDdhxiffH_w0Zif0F-2" value="«interface»&lt;br&gt;&lt;b&gt;Creator&lt;/b&gt;" style="html=1;whiteSpace=wrap;" vertex="1" parent="1">
          <mxGeometry x="-130" y="1390" width="110" height="50" as="geometry" />
        </mxCell>
        <mxCell id="UxZZDdhxiffH_w0Zif0F-3" value="«interface»&lt;br&gt;&lt;b&gt;Deletor&lt;/b&gt;" style="html=1;whiteSpace=wrap;" vertex="1" parent="1">
          <mxGeometry x="-260" y="1390" width="110" height="50" as="geometry" />
        </mxCell>
        <mxCell id="UxZZDdhxiffH_w0Zif0F-4" value="«interface»&lt;br&gt;&lt;b&gt;Editor&lt;/b&gt;" style="html=1;whiteSpace=wrap;" vertex="1" parent="1">
          <mxGeometry x="-390" y="1390" width="110" height="50" as="geometry" />
        </mxCell>
        <mxCell id="UxZZDdhxiffH_w0Zif0F-5" value="" style="endArrow=block;dashed=1;endFill=0;endSize=12;html=1;rounded=0;" edge="1" parent="1" source="bsRdrqoQIyki98Pr8Une-4" target="bsRdrqoQIyki98Pr8Une-25">
          <mxGeometry width="160" relative="1" as="geometry">
            <mxPoint x="-415" y="1154" as="sourcePoint" />
            <mxPoint x="-100" y="1390" as="targetPoint" />
          </mxGeometry>
        </mxCell>
        <mxCell id="UxZZDdhxiffH_w0Zif0F-7" value="Use" style="endArrow=open;endSize=12;dashed=1;html=1;rounded=0;" edge="1" parent="1" source="UxZZDdhxiffH_w0Zif0F-4" target="G7ZctmOGvD5jez6X7ehJ-22">
          <mxGeometry width="160" relative="1" as="geometry">
            <mxPoint x="-380" y="1490" as="sourcePoint" />
            <mxPoint x="-220" y="1490" as="targetPoint" />
          </mxGeometry>
        </mxCell>
        <mxCell id="UxZZDdhxiffH_w0Zif0F-8" value="Use" style="endArrow=open;endSize=12;dashed=1;html=1;rounded=0;" edge="1" parent="1" source="UxZZDdhxiffH_w0Zif0F-3" target="G7ZctmOGvD5jez6X7ehJ-23">
          <mxGeometry width="160" relative="1" as="geometry">
            <mxPoint x="-325" y="1450" as="sourcePoint" />
            <mxPoint x="-325" y="1540" as="targetPoint" />
          </mxGeometry>
        </mxCell>
        <mxCell id="UxZZDdhxiffH_w0Zif0F-9" value="Use" style="endArrow=open;endSize=12;dashed=1;html=1;rounded=0;" edge="1" parent="1" source="UxZZDdhxiffH_w0Zif0F-2" target="G7ZctmOGvD5jez6X7ehJ-21">
          <mxGeometry width="160" relative="1" as="geometry">
            <mxPoint x="-193" y="1450" as="sourcePoint" />
            <mxPoint x="-187" y="1540" as="targetPoint" />
          </mxGeometry>
        </mxCell>
        <mxCell id="UxZZDdhxiffH_w0Zif0F-10" value="Use" style="endArrow=open;endSize=12;dashed=1;html=1;rounded=0;" edge="1" parent="1" source="UxZZDdhxiffH_w0Zif0F-1" target="bsRdrqoQIyki98Pr8Une-25">
          <mxGeometry width="160" relative="1" as="geometry">
            <mxPoint x="-63" y="1450" as="sourcePoint" />
            <mxPoint x="-57" y="1550" as="targetPoint" />
          </mxGeometry>
        </mxCell>
        <mxCell id="UxZZDdhxiffH_w0Zif0F-11" value="«interface»&lt;br&gt;&lt;b&gt;Acceptror&lt;/b&gt;" style="html=1;whiteSpace=wrap;" vertex="1" parent="1">
          <mxGeometry x="280" y="1390" width="110" height="50" as="geometry" />
        </mxCell>
        <mxCell id="UxZZDdhxiffH_w0Zif0F-12" value="«interface»&lt;br&gt;&lt;b&gt;Acceptable&lt;/b&gt;" style="html=1;whiteSpace=wrap;" vertex="1" parent="1">
          <mxGeometry x="280" y="1530" width="110" height="50" as="geometry" />
        </mxCell>
        <mxCell id="UxZZDdhxiffH_w0Zif0F-13" value="Use" style="endArrow=open;endSize=12;dashed=1;html=1;rounded=0;" edge="1" parent="1" source="UxZZDdhxiffH_w0Zif0F-11" target="UxZZDdhxiffH_w0Zif0F-12">
          <mxGeometry width="160" relative="1" as="geometry">
            <mxPoint x="315" y="1390" as="sourcePoint" />
            <mxPoint x="315" y="1480" as="targetPoint" />
          </mxGeometry>
        </mxCell>
        <mxCell id="UxZZDdhxiffH_w0Zif0F-14" value="«interface»&lt;br&gt;&lt;b&gt;Requestor&lt;/b&gt;" style="html=1;whiteSpace=wrap;" vertex="1" parent="1">
          <mxGeometry x="140" y="1390" width="110" height="50" as="geometry" />
        </mxCell>
        <mxCell id="UxZZDdhxiffH_w0Zif0F-15" value="«interface»&lt;br&gt;&lt;b&gt;Requestable&lt;/b&gt;" style="html=1;whiteSpace=wrap;" vertex="1" parent="1">
          <mxGeometry x="140" y="1530" width="110" height="50" as="geometry" />
        </mxCell>
        <mxCell id="UxZZDdhxiffH_w0Zif0F-18" value="Use" style="endArrow=open;endSize=12;dashed=1;html=1;rounded=0;" edge="1" parent="1" source="UxZZDdhxiffH_w0Zif0F-14" target="UxZZDdhxiffH_w0Zif0F-15">
          <mxGeometry width="160" relative="1" as="geometry">
            <mxPoint x="205" y="1450" as="sourcePoint" />
            <mxPoint x="205" y="1540" as="targetPoint" />
          </mxGeometry>
        </mxCell>
        <mxCell id="UxZZDdhxiffH_w0Zif0F-19" value="" style="endArrow=block;dashed=1;endFill=0;endSize=12;html=1;rounded=0;" edge="1" parent="1" source="bsRdrqoQIyki98Pr8Une-8" target="UxZZDdhxiffH_w0Zif0F-11">
          <mxGeometry width="160" relative="1" as="geometry">
            <mxPoint x="-415" y="1140" as="sourcePoint" />
            <mxPoint x="23" y="1400" as="targetPoint" />
          </mxGeometry>
        </mxCell>
        <mxCell id="UxZZDdhxiffH_w0Zif0F-21" value="" style="endArrow=block;dashed=1;endFill=0;endSize=12;html=1;rounded=0;" edge="1" parent="1" source="bsRdrqoQIyki98Pr8Une-4" target="UxZZDdhxiffH_w0Zif0F-14">
          <mxGeometry width="160" relative="1" as="geometry">
            <mxPoint x="-9" y="1090" as="sourcePoint" />
            <mxPoint x="319" y="1400" as="targetPoint" />
          </mxGeometry>
        </mxCell>
        <mxCell id="UxZZDdhxiffH_w0Zif0F-22" value="" style="endArrow=block;dashed=1;endFill=0;endSize=12;html=1;rounded=0;" edge="1" parent="1" source="bsRdrqoQIyki98Pr8Une-8" target="UxZZDdhxiffH_w0Zif0F-2">
          <mxGeometry width="160" relative="1" as="geometry">
            <mxPoint x="276" y="1174" as="sourcePoint" />
            <mxPoint x="338" y="1400" as="targetPoint" />
          </mxGeometry>
        </mxCell>
        <mxCell id="UxZZDdhxiffH_w0Zif0F-23" value="" style="endArrow=block;dashed=1;endFill=0;endSize=12;html=1;rounded=0;" edge="1" parent="1" source="bsRdrqoQIyki98Pr8Une-8" target="UxZZDdhxiffH_w0Zif0F-3">
          <mxGeometry width="160" relative="1" as="geometry">
            <mxPoint x="164" y="1174" as="sourcePoint" />
            <mxPoint x="-42" y="1400" as="targetPoint" />
          </mxGeometry>
        </mxCell>
        <mxCell id="UxZZDdhxiffH_w0Zif0F-24" value="" style="endArrow=block;dashed=1;endFill=0;endSize=12;html=1;rounded=0;" edge="1" parent="1" source="bsRdrqoQIyki98Pr8Une-8" target="UxZZDdhxiffH_w0Zif0F-4">
          <mxGeometry width="160" relative="1" as="geometry">
            <mxPoint x="128" y="1174" as="sourcePoint" />
            <mxPoint x="-163" y="1400" as="targetPoint" />
          </mxGeometry>
        </mxCell>
      </root>
    </mxGraphModel>
  </diagram>
</mxfile>
